<svg xmlns="http://www.w3.org/2000/svg" xmlns:xlink="http://www.w3.org/1999/xlink" viewBox="0,0,256,256" width="250px" height="250px" fill-rule="nonzero"><g fill="#20c997" fill-rule="nonzero" stroke="none" stroke-width="1" stroke-linecap="butt" stroke-linejoin="miter" stroke-miterlimit="10" stroke-dasharray="" stroke-dashoffset="0" font-family="none" font-weight="none" font-size="none" text-anchor="none" style="mix-blend-mode: normal"><g transform="scale(5.12,5.12)"><path d="M46,6v38c0,1.09 -0.91,2 -2,2h-38c-1.09,0 -2,-0.91 -2,-2v-10.19l7.89,4.18c0.3,0.16 0.67,0.16 0.96,-0.01l17.15,-9.77c0.6,-0.34 0.68,-1.19 0.14,-1.63l-1.35,-1.13c-0.32,-0.27 -0.78,-0.3 -1.15,-0.09l-14.79,8.37c-0.3,0.17 -0.66,0.18 -0.96,0.02l-7.89,-4.13v-2.75l7.76,4.12c0.31,0.16 0.67,0.16 0.97,-0.01l17.14,-9.77c0.61,-0.34 0.68,-1.19 0.15,-1.63l-1.35,-1.13c-0.33,-0.27 -0.79,-0.3 -1.15,-0.09l-14.8,8.37c-0.29,0.17 -0.65,0.18 -0.95,0.02l-7.77,-4.06v-2.75l7.64,4.05c0.3,0.16 0.67,0.16 0.96,-0.01l17.15,-9.77c0.6,-0.34 0.68,-1.19 0.14,-1.63l-1.35,-1.13c-0.32,-0.27 -0.78,-0.3 -1.15,-0.09l-14.79,8.37c-0.3,0.17 -0.66,0.18 -0.96,0.02l-7.64,-4v-9.75c0,-1.09 0.91,-2 2,-2h38c1.09,0 2,0.91 2,2z"></path></g></g></svg>